<svg width="54" height="50" viewBox="0 0 54 50" fill="none" xmlns="http://www.w3.org/2000/svg">
<path d="M26.6645 41.6345C27.2386 41.6345 27.704 41.1691 27.704 40.5949C27.704 40.0208 27.2386 39.5554 26.6645 39.5554C26.0904 39.5554 25.625 40.0208 25.625 40.5949C25.625 41.1691 26.0904 41.6345 26.6645 41.6345Z" fill="white"/>
<path d="M50.3959 40.1629C48.7747 38.6218 46.6475 37.6642 44.4546 37.4657C47.5222 37.0516 49.8953 34.4173 49.8953 31.2377C49.8953 27.7714 47.0753 24.9514 43.609 24.9514C40.1427 24.9514 37.3227 27.7714 37.3227 31.2377C37.3227 34.4155 39.693 37.0479 42.7579 37.4648C40.4385 37.6697 38.1966 38.6946 36.6027 40.253C36.2686 39.8179 35.9072 39.4046 35.5195 39.0159C33.3894 36.885 30.625 35.617 27.652 35.3858C31.801 34.8952 35.0297 31.357 35.0297 27.0787C35.0297 22.4655 31.2767 18.7134 26.6644 18.7134C22.0521 18.7134 18.2991 22.4664 18.2991 27.0787C18.2991 31.3606 21.5323 34.9006 25.6859 35.3867C23.8153 35.5333 21.9975 36.0949 20.3772 37.0379C18.9617 37.8608 17.7201 38.9586 16.7252 40.253C15.1313 38.6946 12.8894 37.6687 10.57 37.4648C13.6349 37.0479 16.0052 34.4155 16.0052 31.2377C16.0052 27.7714 13.1852 24.9514 9.7189 24.9514C6.25261 24.9514 3.43261 27.7714 3.43261 31.2377C3.43261 34.4173 5.80567 37.0516 8.87327 37.4657C6.68044 37.6633 4.55315 38.6218 2.93196 40.1629C1.04043 41.9597 0 44.3282 0 46.8324V48.9114C0 49.5122 0.486992 50.0001 1.08868 50.0001H52.2374C52.8382 50.0001 53.3261 49.5131 53.3261 48.9114V46.8324C53.3261 44.3282 52.2856 41.9597 50.3959 40.1629ZM39.4991 31.2377C39.4991 28.9712 41.3424 27.1279 43.609 27.1279C45.8755 27.1279 47.7188 28.9712 47.7188 31.2377C47.7188 33.5043 45.8755 35.3476 43.609 35.3476C41.3424 35.3476 39.4991 33.5043 39.4991 31.2377ZM20.4737 27.0796C20.4737 23.667 23.25 20.8907 26.6626 20.8907C30.0752 20.8907 32.8515 23.667 32.8515 27.0796C32.8515 30.4922 30.0752 33.2685 26.6626 33.2685C23.25 33.2685 20.4737 30.4922 20.4737 27.0796ZM5.60723 31.2377C5.60723 28.9712 7.45052 27.1279 9.71708 27.1279C11.9836 27.1279 13.8269 28.9712 13.8269 31.2377C13.8269 33.5043 11.9836 35.3476 9.71708 35.3476C7.45052 35.3476 5.60723 33.5043 5.60723 31.2377ZM2.17644 46.8324C2.17644 42.9137 5.62999 39.604 9.71708 39.604C11.9427 39.604 14.1492 40.5843 15.5237 42.1445C14.6234 43.894 14.1473 45.8411 14.1392 47.8227H2.17644V46.8315V46.8324ZM16.3156 47.8237C16.3247 45.9785 16.8235 44.1717 17.7602 42.5942C19.6189 39.4674 23.0306 37.5249 26.6626 37.5249C29.4271 37.5249 32.0259 38.6009 33.9793 40.5561C34.591 41.1678 35.1244 41.8532 35.565 42.5942C36.5025 44.1717 37.0014 45.9795 37.0105 47.8237H16.3156ZM51.1496 47.8237H39.1869C39.1796 45.842 38.7027 43.895 37.8024 42.1454C39.1769 40.5852 41.3834 39.6049 43.609 39.6049C47.6961 39.6049 51.1496 42.9155 51.1496 46.8333V47.8246V47.8237Z" fill="white"/>
<path d="M21.8187 10.3433L21.0568 14.7873C20.9867 15.196 21.1551 15.6083 21.4901 15.8514C21.8251 16.0953 22.2693 16.1272 22.6361 15.9342L26.6258 13.836L30.6164 15.9342C30.7757 16.0179 30.9496 16.0589 31.1225 16.0589C31.3483 16.0589 31.5731 15.9888 31.7624 15.8514C32.0974 15.6074 32.2649 15.1951 32.1948 14.7863L31.432 10.3424L34.6607 7.19565C34.9575 6.90618 35.064 6.47381 34.9365 6.07966C34.8082 5.68552 34.4678 5.39878 34.0581 5.33871L29.5997 4.69151L27.6034 0.609878C27.4205 0.236669 27.0418 0 26.6258 0C26.2098 0 25.8312 0.236669 25.6482 0.609878L23.652 4.69151L19.1935 5.33871C18.7839 5.39787 18.4425 5.68552 18.3151 6.07966C18.1868 6.47381 18.2942 6.90618 18.5909 7.19565L21.8196 10.3424L21.8187 10.3433ZM24.5331 6.76418C24.889 6.7123 25.1967 6.48837 25.3542 6.16523L26.6249 3.56642L27.8956 6.16523C28.054 6.48837 28.3608 6.7123 28.7167 6.76418L31.5613 7.17744L29.5023 9.18367C29.2456 9.43399 29.1281 9.79445 29.1891 10.1476L29.6761 12.9822L27.131 11.6441C26.8142 11.4775 26.4356 11.4775 26.1179 11.6441L23.5737 12.9822L24.0598 10.1476C24.1208 9.79445 24.0033 9.43399 23.7467 9.18458L21.6876 7.17835L24.5322 6.76509L24.5331 6.76418Z" fill="white"/>
<path d="M40.4997 17.114L39.9854 20.1142C39.9153 20.522 40.0828 20.9353 40.4186 21.1783C40.7536 21.4223 41.1978 21.4541 41.5647 21.2611L44.26 19.8448L46.9553 21.2611C47.1146 21.3449 47.2884 21.3858 47.4614 21.3858C47.6871 21.3858 47.912 21.3158 48.1013 21.1783C48.4363 20.9344 48.6038 20.522 48.5346 20.1142L48.0203 17.114L50.2004 14.9885C50.4971 14.699 50.6036 14.2667 50.4753 13.8725C50.3469 13.4784 50.0065 13.1916 49.5969 13.1316L46.5839 12.6937L45.2367 9.96384C45.0537 9.59245 44.675 9.35669 44.2609 9.35669C43.8467 9.35669 43.468 9.59154 43.2851 9.96293L41.937 12.6937L38.924 13.1316C38.5144 13.1907 38.1739 13.4784 38.0456 13.8725C37.9172 14.2667 38.0247 14.699 38.3205 14.9885L40.5006 17.114H40.4997ZM42.8154 14.7664C43.1695 14.7145 43.4762 14.4924 43.6346 14.1711L44.2591 12.9049L44.8835 14.1702C45.0419 14.4915 45.3486 14.7145 45.7027 14.7655L47.1 14.9685L46.0887 15.9543C45.832 16.2046 45.7155 16.5642 45.7756 16.9174L46.014 18.3082L44.7643 17.6519C44.4475 17.4854 44.0688 17.4854 43.752 17.6519L42.5013 18.3091L42.7398 16.9183C42.8008 16.5651 42.6834 16.2055 42.4267 15.9552L41.4154 14.9694L42.8126 14.7664H42.8154Z" fill="white"/>
<path d="M5.15591 17.114L4.64161 20.1142C4.57152 20.522 4.73901 20.9353 5.0749 21.1783C5.26424 21.3158 5.48907 21.3858 5.71482 21.3858C5.88777 21.3858 6.06163 21.3449 6.22092 21.2611L8.91622 19.8448L11.6115 21.2611C11.9784 21.4541 12.4226 21.4213 12.7575 21.1783C13.0925 20.9344 13.26 20.522 13.1908 20.1142L12.6765 17.114L14.8566 14.9885C15.1534 14.699 15.2599 14.2667 15.1315 13.8725C15.0032 13.4784 14.6627 13.1916 14.2531 13.1316L11.2401 12.6937L9.89293 9.96384C9.70997 9.59245 9.3313 9.35669 8.91713 9.35669C8.50296 9.35669 8.12429 9.59154 7.94133 9.96293L6.59322 12.6937L3.58024 13.1316C3.17062 13.1907 2.83019 13.4784 2.70184 13.8725C2.57349 14.2667 2.6809 14.699 2.97674 14.9885L5.15682 17.114H5.15591ZM7.47163 14.7664C7.82572 14.7145 8.13248 14.4924 8.29087 14.1711L8.91531 12.9049L9.53975 14.1702C9.69814 14.4915 10.0049 14.7145 10.359 14.7655L11.7562 14.9685L10.7449 15.9543C10.4882 16.2046 10.3717 16.5642 10.4318 16.9174L10.6703 18.3082L9.42051 17.6519C9.10373 17.4854 8.72506 17.4854 8.40829 17.6519L7.15759 18.3091L7.39608 16.9183C7.45706 16.5651 7.33964 16.2055 7.08295 15.9552L6.07164 14.9694L7.4689 14.7664H7.47163Z" fill="white"/>
<path d="M31.245 40.8753C30.7425 40.5449 30.068 40.685 29.7376 41.1875C29.4072 41.69 29.5473 42.3645 30.0498 42.6949C31.0038 43.3221 31.7666 44.195 32.2545 45.2209C32.4411 45.6123 32.8307 45.8417 33.2376 45.8417C33.3941 45.8417 33.5534 45.808 33.7045 45.7361C34.247 45.4776 34.4783 44.8286 34.2197 44.2861C33.5607 42.9006 32.5321 41.7218 31.245 40.8762V40.8753Z" fill="white"/>
</svg>
