<svg width="650" height="440" viewBox="0 0 650 440" fill="none" xmlns="http://www.w3.org/2000/svg">
<g opacity="0.35">
<path fill-rule="evenodd" clip-rule="evenodd" d="M333.275 60.8491C333.275 61.3112 332.903 61.6857 332.443 61.6857C331.984 61.6857 331.612 61.3112 331.612 60.8491C331.612 60.3871 331.984 60.0126 332.443 60.0126C332.903 60.0126 333.275 60.3871 333.275 60.8491ZM336.772 62.355C337.231 62.355 337.603 61.9804 337.603 61.5184C337.603 61.0564 337.231 60.6818 336.772 60.6818C336.312 60.6818 335.94 61.0564 335.94 61.5184C335.94 61.9804 336.312 62.355 336.772 62.355ZM339.764 64.697C339.764 65.3439 339.243 65.8682 338.6 65.8682C337.957 65.8682 337.436 65.3439 337.436 64.697C337.436 64.0502 337.957 63.5258 338.6 63.5258C339.243 63.5258 339.764 64.0502 339.764 64.697ZM330.451 66.5379C331.094 66.5379 331.615 66.0135 331.615 65.3667C331.615 64.7198 331.094 64.1955 330.451 64.1955C329.808 64.1955 329.287 64.7198 329.287 65.3667C329.287 66.0135 329.808 66.5379 330.451 66.5379ZM325.628 69.7167C326.271 69.7167 326.793 69.1923 326.793 68.5455C326.793 67.8987 326.271 67.3743 325.628 67.3743C324.985 67.3743 324.464 67.8987 324.464 68.5455C324.464 69.1923 324.985 69.7167 325.628 69.7167ZM321.635 77.0784C322.278 77.0784 322.799 76.554 322.799 75.9072C322.799 75.2604 322.278 74.736 321.635 74.736C320.992 74.736 320.471 75.2604 320.471 75.9072C320.471 76.554 320.992 77.0784 321.635 77.0784ZM329.284 73.398C329.284 74.0448 328.762 74.5692 328.119 74.5692C327.476 74.5692 326.955 74.0448 326.955 73.398C326.955 72.7512 327.476 72.2268 328.119 72.2268C328.762 72.2268 329.284 72.7512 329.284 73.398ZM330.281 70.3863C330.74 70.3863 331.113 70.0118 331.113 69.5497C331.113 69.0877 330.74 68.7132 330.281 68.7132C329.822 68.7132 329.449 69.0877 329.449 69.5497C329.449 70.0118 329.822 70.3863 330.281 70.3863ZM325.292 72.0593C325.292 72.5213 324.919 72.8959 324.46 72.8959C324.001 72.8959 323.628 72.5213 323.628 72.0593C323.628 71.5973 324.001 71.2227 324.46 71.2227C324.919 71.2227 325.292 71.5973 325.292 72.0593ZM326.291 77.5806C326.75 77.5806 327.123 77.2061 327.123 76.744C327.123 76.282 326.75 75.9075 326.291 75.9075C325.832 75.9075 325.459 76.282 325.459 76.744C325.459 77.2061 325.832 77.5806 326.291 77.5806ZM319.64 73.0634C319.64 73.5254 319.268 73.9 318.808 73.9C318.349 73.9 317.977 73.5254 317.977 73.0634C317.977 72.6014 318.349 72.2268 318.808 72.2268C319.268 72.2268 319.64 72.6014 319.64 73.0634ZM335.441 68.8804C335.901 68.8804 336.273 68.5059 336.273 68.0438C336.273 67.5818 335.901 67.2073 335.441 67.2073C334.982 67.2073 334.61 67.5818 334.61 68.0438C334.61 68.5059 334.982 68.8804 335.441 68.8804Z" fill="white"/>
<path fill-rule="evenodd" clip-rule="evenodd" d="M318.244 79.7188C315.762 77.7338 313.912 74.5476 314.997 71.9986C316.082 69.4497 320.735 67.7578 323.803 65.3036C326.87 62.8494 328.742 57.8939 331.62 56.9401C334.499 55.9864 337.97 57.2743 340.148 59.3701C342.325 61.466 344.266 63.9265 342.853 66.838C341.441 69.7495 336.836 70.5306 333.999 73.2801C331.162 76.0297 329.163 80.6369 326.682 81.5885C324.201 82.5401 320.727 81.7039 318.244 79.7188Z" stroke="white" stroke-width="2.5"/>
<path d="M314.613 79.8413C314.613 79.8413 315.7 83.6724 318.52 85.6029C321.339 87.5335 323.346 88.235 326.426 87.2704C329.506 86.3058 331.022 81.612 333.557 79.4472C337.486 76.0927 343.779 74.275 343.334 70.3098" stroke="white" stroke-width="2.5" stroke-linecap="round"/>
<path d="M428.988 31.0635L422.166 11.9655C421.813 10.9768 422.314 9.88706 423.294 9.51092V9.51092C424.3 9.12472 425.428 9.63644 425.8 10.6481L427.252 14.594" stroke="white" stroke-width="2.5" stroke-linecap="round"/>
<path d="M427.312 14.7523L424.534 7.10336C424.175 6.11497 424.674 5.02123 425.656 4.64449V4.64449C426.66 4.25934 427.785 4.76908 428.157 5.77764L430.227 11.3895" stroke="white" stroke-width="2.5" stroke-linecap="round"/>
<path d="M429.639 9.60293L427.959 4.97669C427.601 3.98985 428.099 2.89783 429.079 2.52168V2.52168C430.083 2.13631 431.209 2.64833 431.578 3.65865L434.212 10.8689" stroke="white" stroke-width="2.5" stroke-linecap="round"/>
<path d="M433.066 7.56457L431.947 4.48335C431.589 3.49789 432.086 2.40741 433.065 2.03178V2.03178C434.07 1.6462 435.196 2.16027 435.562 3.17214L446.795 34.1835" stroke="white" stroke-width="2.5" stroke-linecap="round"/>
<path d="M437.898 27.9628L430.732 17.527C430.077 16.573 430.228 15.2816 431.085 14.5042V14.5042C431.951 13.719 433.267 13.7032 434.151 14.4673L437.686 17.5205" stroke="white" stroke-width="2.5" stroke-linecap="round"/>
<path d="M441.702 12.0149L446.551 6.35772C447.242 5.55269 448.452 5.45437 449.263 6.13742V6.13742C450.073 6.8201 450.182 8.02832 449.507 8.8453L443.809 15.7424" stroke="white" stroke-width="2.5" stroke-linecap="round"/>
<path d="M448.672 9.95629L449.059 9.50515C449.738 8.71243 450.931 8.61753 451.727 9.29278V9.29278C452.521 9.96602 452.625 11.1532 451.959 11.9537L446.767 18.1979" stroke="white" stroke-width="2.5" stroke-linecap="round"/>
<path d="M449.281 15.1783L449.666 14.7292C450.346 13.9353 451.54 13.8403 452.338 14.5165V14.5165C453.131 15.1893 453.236 16.3752 452.573 17.177L446.435 24.6013" stroke="white" stroke-width="2.5" stroke-linecap="round"/>
<path d="M440.248 7.74412L443.187 4.39836C443.849 3.64384 444.993 3.55613 445.763 4.20079V4.20079C446.542 4.85331 446.649 6.01255 446.002 6.79616L443.897 9.34411" stroke="white" stroke-width="2.5" stroke-linecap="round"/>
<path d="M122.328 87.901C122.328 87.901 126.22 87.9644 126.691 84.5515H144.236L143.178 95.0297" stroke="white" stroke-width="2.5" stroke-linecap="round" stroke-linejoin="round"/>
<path d="M143.852 89.7415C143.852 89.7415 148.577 95.4442 145.368 97.6755C144.039 98.5995 141.271 98.1847 137.51 95.815C135.108 94.302 129.027 88.9486 129.027 88.9486" stroke="white" stroke-width="2.5" stroke-linecap="round" stroke-linejoin="round"/>
<path d="M123.949 87.8655L125.82 104.901H142.115L142.907 98.1602" stroke="white" stroke-width="2.5" stroke-linecap="round" stroke-linejoin="round"/>
<path d="M128.304 82.2226C128.304 82.2226 127.382 78.9682 129.766 77.7731C132.15 76.5779 134.465 79.4165 134.465 79.4165" stroke="white" stroke-width="2.5" stroke-linecap="round" stroke-linejoin="round"/>
<path d="M132.625 77.6888C132.625 77.6888 133.582 75.0974 135.82 75.0402C138.058 74.9831 138.962 77.2485 138.962 77.2485C138.962 77.2485 140.946 76.4477 142.129 77.1626C143.311 77.8775 143.254 79.4701 143.254 79.4701C143.254 79.4701 145.694 79.7587 146.006 81.6889C146.318 83.6192 144.321 84.5905 144.321 84.5905" stroke="white" stroke-width="2.5" stroke-linecap="round" stroke-linejoin="round"/>
<path d="M124.274 91.5077C124.274 91.5077 120.903 92.7003 119.608 90.6805C118.313 88.6606 120.23 86.676 120.23 86.676C120.23 86.676 119.083 84.6873 119.878 83.0147C120.674 81.3421 122.994 80.5763 124.829 81.6672" stroke="white" stroke-width="2.5" stroke-linecap="round" stroke-linejoin="round"/>
<path d="M122.72 81.0972C122.72 81.0972 122.452 78.8955 123.559 77.8057C124.667 76.716 126.641 77.1024 126.641 77.1024" stroke="white" stroke-width="2.5" stroke-linecap="round" stroke-linejoin="round"/>
<path fill-rule="evenodd" clip-rule="evenodd" d="M202.611 16.3791C202.959 16.5803 203.404 16.4624 203.604 16.1159C203.804 15.7693 203.684 15.3252 203.335 15.1241C202.987 14.9229 202.542 15.0408 202.342 15.3873C202.142 15.7339 202.262 16.178 202.611 16.3791ZM199.656 15.6753C200.004 15.8765 200.449 15.7586 200.649 15.4121C200.849 15.0655 200.729 14.6214 200.38 14.4203C200.032 14.2191 199.587 14.337 199.387 14.6835C199.187 15.0301 199.307 15.4742 199.656 15.6753ZM198.494 17.6833C198.843 17.8844 199.288 17.7666 199.488 17.42C199.688 17.0734 199.568 16.6294 199.219 16.4282C198.871 16.227 198.426 16.3449 198.226 16.6915C198.026 17.0381 198.146 17.4821 198.494 17.6833ZM198.253 19.5537C198.053 19.9003 197.608 20.0181 197.26 19.817C196.911 19.6158 196.791 19.1717 196.991 18.8252C197.191 18.4786 197.636 18.3607 197.984 18.5619C198.333 18.763 198.453 19.2071 198.253 19.5537ZM202.013 18.8771C201.813 19.2237 201.368 19.3416 201.019 19.1404C200.671 18.9392 200.551 18.4952 200.751 18.1486C200.951 17.802 201.396 17.6842 201.744 17.8853C202.092 18.0865 202.213 18.5305 202.013 18.8771ZM199.348 22.027C199.697 22.2282 200.142 22.1103 200.342 21.7638C200.542 21.4172 200.421 20.9731 200.073 20.772C199.725 20.5708 199.28 20.6887 199.08 21.0352C198.88 21.3818 199 21.8259 199.348 22.027Z" fill="white"/>
<path d="M184.138 14.5801L187.672 16.6199" stroke="white" stroke-width="2.5" stroke-linecap="round"/>
<path d="M182.4 17.5923L185.933 19.6322" stroke="white" stroke-width="2.5" stroke-linecap="round"/>
<path fill-rule="evenodd" clip-rule="evenodd" d="M182.234 17.5028L183.913 14.5943L181.213 13.0352L180.76 11.1095L184.5 9.58516C186.205 8.8902 188.136 9.02224 189.73 9.94287L195.973 13.5474C196.508 13.856 196.691 14.5396 196.383 15.0741L195.632 16.3734C195.411 16.7572 194.92 16.8887 194.536 16.6671V16.6671C191.85 15.1161 188.415 16.0365 186.864 18.7229L185.742 20.6654C184.673 22.5174 184.408 24.7261 185.008 26.7787V26.7787C185.608 28.8313 185.343 31.04 184.274 32.892L182.482 35.9954L171.588 29.7059C171.588 29.7059 173.947 24.899 176.468 22.0092C178.989 19.1195 182.234 17.5028 182.234 17.5028Z" stroke="white" stroke-width="2.5" stroke-linecap="round" stroke-linejoin="round"/>
<path d="M193.968 13.0575C191.777 16.5013 191.077 19.1278 191.868 20.9371" stroke="white" stroke-width="2.5" stroke-linecap="round"/>
<path d="M568 65.2763L579.164 76.5986L585.672 70.1574L592.567 71.9219L604.675 84.1364L607.782 80.9913L595.779 68.8943L593.991 61.7228L600.347 55.3567L589.114 43.9994" stroke="white" stroke-width="2.5" stroke-linecap="round" stroke-linejoin="round"/>
<path d="M574.98 71.7275L595.756 50.9755" stroke="white" stroke-width="2.5" stroke-linecap="round" stroke-linejoin="round"/>
<path d="M585.878 70.2295L584.223 68.5901L592.446 60.3258L593.982 61.9459" stroke="white" stroke-width="2.5" stroke-linecap="round" stroke-linejoin="round"/>
<path d="M592.699 72.1241L595.738 69.1327" stroke="white" stroke-width="2.5" stroke-linecap="round" stroke-linejoin="round"/>
<path d="M601.422 80.6818L604.461 77.6904" stroke="white" stroke-width="2.5" stroke-linecap="round" stroke-linejoin="round"/>
<path d="M597.266 76.507L600.305 73.5156" stroke="white" stroke-width="2.5" stroke-linecap="round" stroke-linejoin="round"/>
<path d="M576.359 79.6575L580.784 84.1366" stroke="white" stroke-width="2.5" stroke-linecap="round" stroke-linejoin="round"/>
<path d="M582.387 79.6575L586.811 84.1366" stroke="white" stroke-width="2.5" stroke-linecap="round" stroke-linejoin="round"/>
<path d="M600.469 61.4991L604.893 65.9783" stroke="white" stroke-width="2.5" stroke-linecap="round" stroke-linejoin="round"/>
<path d="M600.469 49.3932L604.893 53.8723" stroke="white" stroke-width="2.5" stroke-linecap="round" stroke-linejoin="round"/>
<path d="M633.752 21.7836L623.955 18.2176C623.206 17.9449 622.82 17.1166 623.092 16.3674V16.3674C623.365 15.6183 624.193 15.232 624.942 15.5047L633.337 18.5602C635.868 19.4812 637.172 22.2791 636.251 24.8095V24.8095C636.058 25.3409 635.47 25.6149 634.939 25.4215L621.568 20.5549" stroke="white" stroke-width="2.5" stroke-linecap="round"/>
<path d="M623.011 16.5744L625.43 9.92875C626.323 7.4754 629.036 6.21045 631.489 7.10339L633.606 7.87391C637.899 9.43657 640.113 14.1838 638.55 18.4772L636.879 23.0705" stroke="white" stroke-width="2.5"/>
<path fill-rule="evenodd" clip-rule="evenodd" d="M298.797 18.8986C298.797 18.8986 290.895 21.5585 289.528 28.3229C289.528 28.3229 287.235 20.3799 280.068 18.8986C280.068 18.8986 287.703 16.496 289.528 9.56702C289.528 9.56702 290.727 13.413 293.111 15.7276C295.043 17.6034 298.797 18.8986 298.797 18.8986Z" stroke="white" stroke-width="2.5" stroke-linecap="round" stroke-linejoin="round"/>
<path fill-rule="evenodd" clip-rule="evenodd" d="M551.492 13.0465C551.492 13.0465 544.561 15.376 543.363 21.3002C543.363 21.3002 541.352 14.3438 535.066 13.0465C535.066 13.0465 541.762 10.9423 543.363 4.87402C543.363 4.87402 544.415 8.24225 546.505 10.2693C548.2 11.9122 551.492 13.0465 551.492 13.0465Z" stroke="white" stroke-width="2.5" stroke-linecap="round" stroke-linejoin="round"/>
<path fill-rule="evenodd" clip-rule="evenodd" d="M205.367 82.2842C205.367 82.2842 200.747 83.8373 199.948 87.7867C199.948 87.7867 198.607 83.1491 194.416 82.2842C194.416 82.2842 198.88 80.8815 199.948 76.8359C199.948 76.8359 200.649 79.0814 202.043 80.4328C203.172 81.5281 205.367 82.2842 205.367 82.2842Z" stroke="white" stroke-width="2.5" stroke-linecap="round" stroke-linejoin="round"/>
<path fill-rule="evenodd" clip-rule="evenodd" d="M443.547 88.1546C443.547 88.1546 439.586 89.4858 438.902 92.871C438.902 92.871 437.752 88.8959 434.161 88.1546C434.161 88.1546 437.987 86.9522 438.902 83.4846C438.902 83.4846 439.503 85.4093 440.697 86.5677C441.665 87.5064 443.547 88.1546 443.547 88.1546Z" stroke="white" stroke-width="2.5" stroke-linecap="round" stroke-linejoin="round"/>
<path fill-rule="evenodd" clip-rule="evenodd" d="M634.406 53.3565C634.406 53.3565 632.096 54.133 631.697 56.1077C631.697 56.1077 631.026 53.7889 628.931 53.3565C628.931 53.3565 631.163 52.6551 631.697 50.6323C631.697 50.6323 632.047 51.7551 632.744 52.4308C633.309 52.9784 634.406 53.3565 634.406 53.3565Z" stroke="white" stroke-width="2.5" stroke-linecap="round" stroke-linejoin="round"/>
<path d="M351.645 16.1624H353.895" stroke="white" stroke-width="3" stroke-linecap="round" stroke-linejoin="round"/>
<path d="M352.77 15.042V17.2829" stroke="white" stroke-width="3" stroke-linecap="round" stroke-linejoin="round"/>
<path d="M496.348 16.1626H498.598" stroke="white" stroke-width="3" stroke-linecap="round" stroke-linejoin="round"/>
<path d="M497.477 15.0422V17.2831" stroke="white" stroke-width="3" stroke-linecap="round" stroke-linejoin="round"/>
<path d="M644.176 35.6821H647.927" stroke="white" stroke-width="3" stroke-linecap="round" stroke-linejoin="round"/>
<path d="M646.051 33.8149V37.5498" stroke="white" stroke-width="3" stroke-linecap="round" stroke-linejoin="round"/>
<path d="M590.211 12.2518H592.461" stroke="white" stroke-width="3" stroke-linecap="round" stroke-linejoin="round"/>
<path d="M591.34 11.1316V13.3725" stroke="white" stroke-width="3" stroke-linecap="round" stroke-linejoin="round"/>
<path d="M549.926 90.0278H554.427" stroke="white" stroke-width="3" stroke-linecap="round" stroke-linejoin="round"/>
<path d="M552.176 87.7866V92.2684" stroke="white" stroke-width="3" stroke-linecap="round" stroke-linejoin="round"/>
<path d="M402.48 78.7383H404.731" stroke="white" stroke-width="3" stroke-linecap="round" stroke-linejoin="round"/>
<path d="M403.609 77.6179V79.8588" stroke="white" stroke-width="3" stroke-linecap="round" stroke-linejoin="round"/>
<path d="M265.203 86.5428H268.204" stroke="white" stroke-width="3" stroke-linecap="round" stroke-linejoin="round"/>
<path d="M266.703 85.0488V88.0367" stroke="white" stroke-width="3" stroke-linecap="round" stroke-linejoin="round"/>
<path d="M238.223 27.8954H240.473" stroke="white" stroke-width="3" stroke-linecap="round" stroke-linejoin="round"/>
<path d="M239.352 26.775V29.0159" stroke="white" stroke-width="3" stroke-linecap="round" stroke-linejoin="round"/>
<path d="M123.633 16.2157H128.326" stroke="white" stroke-width="3" stroke-linecap="round" stroke-linejoin="round"/>
<path d="M125.98 13.8689V18.5621" stroke="white" stroke-width="3" stroke-linecap="round" stroke-linejoin="round"/>
<path d="M148.27 51.3617H150.52" stroke="white" stroke-width="3" stroke-linecap="round" stroke-linejoin="round"/>
<path d="M149.398 50.2413V52.4822" stroke="white" stroke-width="3" stroke-linecap="round" stroke-linejoin="round"/>
<ellipse cx="380.585" cy="15.2808" rx="5.47538" ry="7.97438" stroke="white" stroke-width="2.5"/>
<path d="M378.156 15.7762C378.156 15.7762 377.12 17.4018 377.603 18.8537C378.086 20.3055 379.197 20.8797 379.197 20.8797" stroke="white" stroke-width="2.5" stroke-linecap="round"/>
<ellipse cx="116.977" cy="41.8631" rx="3.91099" ry="5.64041" stroke="white" stroke-width="2.5"/>
<path d="M115.632 42.2136C115.632 42.2136 114.969 43.469 115.238 44.3903C115.507 45.3116 116.301 45.5897 116.301 45.5897" stroke="white" stroke-width="2.5" stroke-linecap="round"/>
<ellipse cx="249.954" cy="100.919" rx="3.91099" ry="5.64041" stroke="white" stroke-width="2.5"/>
<path d="M248.609 101.269C248.609 101.269 247.945 102.525 248.214 103.446C248.483 104.367 249.277 104.645 249.277 104.645" stroke="white" stroke-width="2.5" stroke-linecap="round"/>
<ellipse cx="640.665" cy="79.2158" rx="4.30208" ry="6.2239" stroke="white" stroke-width="2.5"/>
<path d="M638.754 79.6023C638.754 79.6023 637.94 80.8711 638.32 82.0042C638.7 83.1373 639.573 83.5855 639.573 83.5855" stroke="white" stroke-width="2.5" stroke-linecap="round"/>
<path d="M493.336 77.7854C496.506 77.7854 496.046 79.9393 499.07 79.9393C502.094 79.9393 502.194 77.7854 505.419 77.7854C508.643 77.7854 508.764 79.9393 511.959 79.9393C515.155 79.9393 515.036 77.7854 518.213 77.7854C521.39 77.7854 521.548 79.9393 524.661 79.9393C527.773 79.9393 527.487 77.7854 530.677 77.7854" stroke="white" stroke-width="2.5"/>
<path d="M493.336 83.9869C496.506 83.9869 496.046 86.1408 499.07 86.1408C502.094 86.1408 502.194 83.9869 505.419 83.9869C508.643 83.9869 508.764 86.1408 511.959 86.1408C515.155 86.1408 515.036 83.9869 518.213 83.9869C521.39 83.9869 521.548 86.1408 524.661 86.1408C527.773 86.1408 527.487 83.9869 530.677 83.9869" stroke="white" stroke-width="2.5"/>
<path d="M493.336 89.8439C496.506 89.8439 496.046 91.9977 499.07 91.9977C502.094 91.9977 502.194 89.8439 505.419 89.8439C508.643 89.8439 508.764 91.9977 511.959 91.9977C515.155 91.9977 515.036 89.8439 518.213 89.8439C521.39 89.8439 521.548 91.9977 524.661 91.9977C527.773 91.9977 527.487 89.8439 530.677 89.8439" stroke="white" stroke-width="2.5"/>
<path fill-rule="evenodd" clip-rule="evenodd" d="M222.213 174.659C222.213 175.121 221.84 175.495 221.381 175.495C220.922 175.495 220.549 175.121 220.549 174.659C220.549 174.197 220.922 173.822 221.381 173.822C221.84 173.822 222.213 174.197 222.213 174.659ZM225.709 176.165C226.168 176.165 226.541 175.79 226.541 175.328C226.541 174.866 226.168 174.492 225.709 174.492C225.25 174.492 224.877 174.866 224.877 175.328C224.877 175.79 225.25 176.165 225.709 176.165ZM228.702 178.507C228.702 179.154 228.181 179.678 227.538 179.678C226.895 179.678 226.373 179.154 226.373 178.507C226.373 177.86 226.895 177.336 227.538 177.336C228.181 177.336 228.702 177.86 228.702 178.507ZM219.388 180.348C220.031 180.348 220.553 179.823 220.553 179.176C220.553 178.53 220.031 178.005 219.388 178.005C218.745 178.005 218.224 178.53 218.224 179.176C218.224 179.823 218.745 180.348 219.388 180.348ZM214.566 183.526C215.209 183.526 215.73 183.002 215.73 182.355C215.73 181.708 215.209 181.184 214.566 181.184C213.923 181.184 213.401 181.708 213.401 182.355C213.401 183.002 213.923 183.526 214.566 183.526ZM210.573 190.888C211.216 190.888 211.737 190.364 211.737 189.717C211.737 189.07 211.216 188.546 210.573 188.546C209.93 188.546 209.408 189.07 209.408 189.717C209.408 190.364 209.93 190.888 210.573 190.888ZM218.221 187.208C218.221 187.855 217.7 188.379 217.057 188.379C216.414 188.379 215.893 187.855 215.893 187.208C215.893 186.561 216.414 186.036 217.057 186.036C217.7 186.036 218.221 186.561 218.221 187.208ZM219.219 184.196C219.678 184.196 220.05 183.821 220.05 183.359C220.05 182.897 219.678 182.522 219.219 182.522C218.759 182.522 218.387 182.897 218.387 183.359C218.387 183.821 218.759 184.196 219.219 184.196ZM214.235 185.869C214.235 186.331 213.863 186.706 213.404 186.706C212.944 186.706 212.572 186.331 212.572 185.869C212.572 185.407 212.944 185.032 213.404 185.032C213.863 185.032 214.235 185.407 214.235 185.869ZM215.228 191.39C215.688 191.39 216.06 191.016 216.06 190.554C216.06 190.092 215.688 189.717 215.228 189.717C214.769 189.717 214.397 190.092 214.397 190.554C214.397 191.016 214.769 191.39 215.228 191.39ZM208.577 186.873C208.577 187.335 208.205 187.71 207.746 187.71C207.286 187.71 206.914 187.335 206.914 186.873C206.914 186.411 207.286 186.036 207.746 186.036C208.205 186.036 208.577 186.411 208.577 186.873ZM224.379 182.69C224.838 182.69 225.211 182.316 225.211 181.854C225.211 181.392 224.838 181.017 224.379 181.017C223.92 181.017 223.547 181.392 223.547 181.854C223.547 182.316 223.92 182.69 224.379 182.69Z" fill="white"/>
<path fill-rule="evenodd" clip-rule="evenodd" d="M207.174 193.528C204.692 191.543 202.841 188.357 203.927 185.808C205.012 183.259 209.665 181.567 212.733 179.113C215.8 176.659 217.672 171.703 220.55 170.75C223.428 169.796 226.9 171.084 229.077 173.18C231.255 175.276 233.195 177.736 231.783 180.648C230.37 183.559 225.765 184.34 222.929 187.09C220.092 189.839 218.092 194.446 215.612 195.398C213.131 196.35 209.656 195.513 207.174 193.528Z" stroke="white" stroke-width="2.5"/>
<path d="M203.543 193.651C203.543 193.651 204.63 197.482 207.449 199.413C210.269 201.343 212.275 202.045 215.355 201.08C218.435 200.115 219.952 195.422 222.487 193.257C226.415 189.902 232.708 188.085 232.264 184.119" stroke="white" stroke-width="2.5" stroke-linecap="round"/>
<path d="M317.917 144.873L311.096 125.775C310.743 124.787 311.243 123.697 312.223 123.321V123.321C313.23 122.935 314.358 123.446 314.73 124.458L316.181 128.404" stroke="white" stroke-width="2.5" stroke-linecap="round"/>
<path d="M316.241 128.562L313.464 120.913C313.105 119.925 313.604 118.831 314.586 118.454V118.454C315.589 118.069 316.714 118.579 317.086 119.587L319.156 125.199" stroke="white" stroke-width="2.5" stroke-linecap="round"/>
<path d="M318.569 123.413L316.889 118.786C316.531 117.799 317.029 116.707 318.009 116.331V116.331C319.013 115.946 320.138 116.458 320.507 117.468L323.142 124.679" stroke="white" stroke-width="2.5" stroke-linecap="round"/>
<path d="M321.995 121.374L320.876 118.293C320.519 117.308 321.016 116.217 321.995 115.841V115.841C323 115.456 324.125 115.97 324.492 116.982L335.725 147.993" stroke="white" stroke-width="2.5" stroke-linecap="round"/>
<path d="M326.828 141.773L319.662 131.337C319.007 130.383 319.158 129.091 320.015 128.314V128.314C320.881 127.529 322.197 127.513 323.081 128.277L326.615 131.33" stroke="white" stroke-width="2.5" stroke-linecap="round"/>
<path d="M330.632 125.825L335.481 120.168C336.171 119.363 337.381 119.264 338.192 119.947V119.947C339.003 120.63 339.112 121.838 338.437 122.655L332.739 129.552" stroke="white" stroke-width="2.5" stroke-linecap="round"/>
<path d="M337.602 123.766L337.989 123.315C338.668 122.522 339.86 122.427 340.657 123.102V123.102C341.451 123.776 341.554 124.963 340.889 125.763L335.696 132.008" stroke="white" stroke-width="2.5" stroke-linecap="round"/>
<path d="M338.21 128.988L338.595 128.539C339.276 127.745 340.47 127.65 341.267 128.327V128.327C342.061 128.999 342.166 130.185 341.503 130.987L335.364 138.411" stroke="white" stroke-width="2.5" stroke-linecap="round"/>
<path d="M329.178 121.554L332.116 118.208C332.779 117.453 333.923 117.366 334.693 118.01V118.01C335.472 118.663 335.579 119.822 334.931 120.606L332.826 123.154" stroke="white" stroke-width="2.5" stroke-linecap="round"/>
<path d="M11.2539 201.71C11.2539 201.71 15.1461 201.774 15.6172 198.361H33.1615L32.1041 208.839" stroke="white" stroke-width="2.5" stroke-linecap="round" stroke-linejoin="round"/>
<path d="M32.7783 203.551C32.7783 203.551 37.5023 209.254 34.2934 211.485C32.9646 212.409 30.1966 211.994 26.4354 209.624C24.034 208.111 17.9531 202.758 17.9531 202.758" stroke="white" stroke-width="2.5" stroke-linecap="round" stroke-linejoin="round"/>
<path d="M12.875 201.675L14.7458 218.71H31.0404L31.8324 211.97" stroke="white" stroke-width="2.5" stroke-linecap="round" stroke-linejoin="round"/>
<path d="M17.2296 196.032C17.2296 196.032 16.308 192.778 18.6921 191.583C21.0762 190.387 23.3911 193.226 23.3911 193.226" stroke="white" stroke-width="2.5" stroke-linecap="round" stroke-linejoin="round"/>
<path d="M21.5508 191.498C21.5508 191.498 22.508 188.907 24.7459 188.85C26.9838 188.793 27.8881 191.058 27.8881 191.058C27.8881 191.058 29.8717 190.257 31.0545 190.972C32.2373 191.687 32.1801 193.28 32.1801 193.28C32.1801 193.28 34.6196 193.568 34.9319 195.498C35.2442 197.429 33.2466 198.4 33.2466 198.4" stroke="white" stroke-width="2.5" stroke-linecap="round" stroke-linejoin="round"/>
<path d="M13.2 205.317C13.2 205.317 9.8287 206.51 8.53382 204.49C7.23893 202.47 9.15556 200.485 9.15556 200.485C9.15556 200.485 8.00893 198.497 8.80426 196.824C9.59959 195.152 11.9193 194.386 13.755 195.477" stroke="white" stroke-width="2.5" stroke-linecap="round" stroke-linejoin="round"/>
<path d="M11.6463 194.907C11.6463 194.907 11.3774 192.705 12.4849 191.615C13.5925 190.525 15.5666 190.912 15.5666 190.912" stroke="white" stroke-width="2.5" stroke-linecap="round" stroke-linejoin="round"/>
<path fill-rule="evenodd" clip-rule="evenodd" d="M91.552 130.188C91.9005 130.39 92.3452 130.272 92.5453 129.925C92.7454 129.579 92.6251 129.134 92.2767 128.933C91.9282 128.732 91.4835 128.85 91.2834 129.197C91.0833 129.543 91.2036 129.987 91.552 130.188ZM88.5971 129.484C88.9455 129.685 89.3902 129.568 89.5903 129.221C89.7904 128.874 89.6701 128.43 89.3217 128.229C88.9732 128.028 88.5286 128.146 88.3285 128.492C88.1284 128.839 88.2486 129.283 88.5971 129.484ZM87.436 131.492C87.7844 131.694 88.2291 131.576 88.4292 131.229C88.6293 130.882 88.509 130.438 88.1606 130.237C87.8121 130.036 87.3674 130.154 87.1673 130.501C86.9672 130.847 87.0875 131.291 87.436 131.492ZM87.1944 133.363C86.9943 133.709 86.5496 133.827 86.2011 133.626C85.8527 133.425 85.7324 132.981 85.9325 132.634C86.1326 132.288 86.5773 132.17 86.9258 132.371C87.2742 132.572 87.3945 133.016 87.1944 133.363ZM90.9541 132.686C90.754 133.033 90.3093 133.151 89.9609 132.949C89.6124 132.748 89.4922 132.304 89.6923 131.958C89.8924 131.611 90.3371 131.493 90.6855 131.694C91.034 131.896 91.1542 132.34 90.9541 132.686ZM88.2899 135.836C88.6383 136.037 89.083 135.919 89.2831 135.573C89.4832 135.226 89.363 134.782 89.0145 134.581C88.6661 134.38 88.2214 134.498 88.0213 134.844C87.8212 135.191 87.9414 135.635 88.2899 135.836Z" fill="white"/>
<path d="M73.0682 128.39L76.6013 130.429" stroke="white" stroke-width="2.5" stroke-linecap="round"/>
<path d="M71.3377 131.402L74.8708 133.442" stroke="white" stroke-width="2.5" stroke-linecap="round"/>
<path fill-rule="evenodd" clip-rule="evenodd" d="M71.1637 131.312L72.843 128.404L70.1426 126.845L69.6898 124.919L73.4297 123.394C75.1348 122.7 77.0654 122.832 78.6599 123.752L84.9031 127.357C85.4377 127.665 85.6208 128.349 85.3122 128.883L84.5621 130.183C84.3405 130.567 83.8498 130.698 83.466 130.476V130.476C80.7797 128.925 77.3446 129.846 75.7937 132.532L74.6722 134.475C73.6029 136.327 73.3376 138.535 73.9377 140.588V140.588C74.5379 142.641 74.2726 144.849 73.2033 146.701L71.4115 149.805L60.5178 143.515C60.5178 143.515 62.8767 138.708 65.3977 135.819C67.9187 132.929 71.1637 131.312 71.1637 131.312Z" stroke="white" stroke-width="2.5" stroke-linecap="round" stroke-linejoin="round"/>
<path d="M82.9015 126.867C80.7109 130.311 80.0108 132.937 80.8011 134.746" stroke="white" stroke-width="2.5" stroke-linecap="round"/>
<path d="M456.934 179.086L468.097 190.408L474.605 183.967L481.501 185.732L493.608 197.946L496.715 194.801L484.713 182.704L482.924 175.533L489.281 169.166L478.048 157.809" stroke="white" stroke-width="2.5" stroke-linecap="round" stroke-linejoin="round"/>
<path d="M463.914 185.537L484.689 164.785" stroke="white" stroke-width="2.5" stroke-linecap="round" stroke-linejoin="round"/>
<path d="M474.812 184.039L473.156 182.4L481.38 174.135L482.915 175.756" stroke="white" stroke-width="2.5" stroke-linecap="round" stroke-linejoin="round"/>
<path d="M481.633 185.934L484.672 182.943" stroke="white" stroke-width="2.5" stroke-linecap="round" stroke-linejoin="round"/>
<path d="M490.355 194.492L493.395 191.5" stroke="white" stroke-width="2.5" stroke-linecap="round" stroke-linejoin="round"/>
<path d="M486.199 190.317L489.238 187.325" stroke="white" stroke-width="2.5" stroke-linecap="round" stroke-linejoin="round"/>
<path d="M465.293 193.468L469.717 197.947" stroke="white" stroke-width="2.5" stroke-linecap="round" stroke-linejoin="round"/>
<path d="M471.32 193.468L475.745 197.947" stroke="white" stroke-width="2.5" stroke-linecap="round" stroke-linejoin="round"/>
<path d="M489.402 175.309L493.827 179.788" stroke="white" stroke-width="2.5" stroke-linecap="round" stroke-linejoin="round"/>
<path d="M489.402 163.203L493.827 167.682" stroke="white" stroke-width="2.5" stroke-linecap="round" stroke-linejoin="round"/>
<path d="M522.686 135.593L512.889 132.027C512.139 131.754 511.753 130.926 512.026 130.177V130.177C512.298 129.428 513.127 129.041 513.876 129.314L522.271 132.37C524.801 133.291 526.106 136.089 525.185 138.619V138.619C524.991 139.15 524.404 139.424 523.873 139.231L510.502 134.364" stroke="white" stroke-width="2.5" stroke-linecap="round"/>
<path d="M511.945 130.384L514.364 123.738C515.257 121.285 517.969 120.02 520.423 120.913L522.54 121.684C526.833 123.246 529.047 127.994 527.484 132.287L525.812 136.88" stroke="white" stroke-width="2.5"/>
<path fill-rule="evenodd" clip-rule="evenodd" d="M187.727 132.708C187.727 132.708 179.824 135.368 178.458 142.133C178.458 142.133 176.165 134.19 168.998 132.708C168.998 132.708 176.632 130.306 178.458 123.377C178.458 123.377 179.657 127.223 182.041 129.537C183.973 131.413 187.727 132.708 187.727 132.708Z" stroke="white" stroke-width="2.5" stroke-linecap="round" stroke-linejoin="round"/>
<path fill-rule="evenodd" clip-rule="evenodd" d="M440.422 126.856C440.422 126.856 433.491 129.185 432.293 135.11C432.293 135.11 430.282 128.153 423.996 126.856C423.996 126.856 430.692 124.752 432.293 118.683C432.293 118.683 433.344 122.052 435.435 124.079C437.129 125.722 440.422 126.856 440.422 126.856Z" stroke="white" stroke-width="2.5" stroke-linecap="round" stroke-linejoin="round"/>
<path fill-rule="evenodd" clip-rule="evenodd" d="M94.2969 196.094C94.2969 196.094 89.6764 197.647 88.8776 201.597C88.8776 201.597 87.5367 196.959 83.3461 196.094C83.3461 196.094 87.81 194.691 88.8776 190.646C88.8776 190.646 89.5784 192.891 90.9723 194.243C92.1019 195.338 94.2969 196.094 94.2969 196.094Z" stroke="white" stroke-width="2.5" stroke-linecap="round" stroke-linejoin="round"/>
<path fill-rule="evenodd" clip-rule="evenodd" d="M332.477 201.964C332.477 201.964 328.516 203.295 327.831 206.68C327.831 206.68 326.682 202.705 323.09 201.964C323.09 201.964 326.916 200.762 327.831 197.294C327.831 197.294 328.432 199.219 329.627 200.377C330.595 201.316 332.477 201.964 332.477 201.964Z" stroke="white" stroke-width="2.5" stroke-linecap="round" stroke-linejoin="round"/>
<path fill-rule="evenodd" clip-rule="evenodd" d="M523.34 167.166C523.34 167.166 521.03 167.943 520.63 169.917C520.63 169.917 519.96 167.598 517.864 167.166C517.864 167.166 520.096 166.465 520.63 164.442C520.63 164.442 520.981 165.565 521.678 166.24C522.242 166.788 523.34 167.166 523.34 167.166Z" stroke="white" stroke-width="2.5" stroke-linecap="round" stroke-linejoin="round"/>
<path d="M240.57 129.972H242.821" stroke="white" stroke-width="3" stroke-linecap="round" stroke-linejoin="round"/>
<path d="M241.699 128.852V131.093" stroke="white" stroke-width="3" stroke-linecap="round" stroke-linejoin="round"/>
<path d="M385.281 129.972H387.532" stroke="white" stroke-width="3" stroke-linecap="round" stroke-linejoin="round"/>
<path d="M386.41 128.852V131.093" stroke="white" stroke-width="3" stroke-linecap="round" stroke-linejoin="round"/>
<path d="M533.109 149.492H536.86" stroke="white" stroke-width="3" stroke-linecap="round" stroke-linejoin="round"/>
<path d="M534.984 147.625V151.36" stroke="white" stroke-width="3" stroke-linecap="round" stroke-linejoin="round"/>
<path d="M479.148 126.062H481.399" stroke="white" stroke-width="3" stroke-linecap="round" stroke-linejoin="round"/>
<path d="M480.277 124.941V127.182" stroke="white" stroke-width="3" stroke-linecap="round" stroke-linejoin="round"/>
<path d="M438.859 203.837H443.36" stroke="white" stroke-width="3" stroke-linecap="round" stroke-linejoin="round"/>
<path d="M441.109 201.596V206.078" stroke="white" stroke-width="3" stroke-linecap="round" stroke-linejoin="round"/>
<path d="M291.418 192.548H293.669" stroke="white" stroke-width="3" stroke-linecap="round" stroke-linejoin="round"/>
<path d="M292.547 191.428V193.669" stroke="white" stroke-width="3" stroke-linecap="round" stroke-linejoin="round"/>
<path d="M154.141 200.353H157.141" stroke="white" stroke-width="3" stroke-linecap="round" stroke-linejoin="round"/>
<path d="M155.641 198.859V201.846" stroke="white" stroke-width="3" stroke-linecap="round" stroke-linejoin="round"/>
<path d="M127.145 141.706H129.395" stroke="white" stroke-width="3" stroke-linecap="round" stroke-linejoin="round"/>
<path d="M128.273 140.585V142.826" stroke="white" stroke-width="3" stroke-linecap="round" stroke-linejoin="round"/>
<path d="M12.5547 130.026H17.2479" stroke="white" stroke-width="3" stroke-linecap="round" stroke-linejoin="round"/>
<path d="M14.9023 127.679V132.372" stroke="white" stroke-width="3" stroke-linecap="round" stroke-linejoin="round"/>
<path d="M37.1992 165.171H39.4498" stroke="white" stroke-width="3" stroke-linecap="round" stroke-linejoin="round"/>
<path d="M38.3281 164.051V166.292" stroke="white" stroke-width="3" stroke-linecap="round" stroke-linejoin="round"/>
<ellipse cx="269.518" cy="129.091" rx="5.47538" ry="7.97438" stroke="white" stroke-width="2.5"/>
<path d="M267.089 129.586C267.089 129.586 266.053 131.212 266.537 132.664C267.02 134.116 268.131 134.69 268.131 134.69" stroke="white" stroke-width="2.5" stroke-linecap="round"/>
<ellipse cx="5.91099" cy="155.673" rx="3.91099" ry="5.64041" stroke="white" stroke-width="2.5"/>
<path d="M4.56601 156.023C4.56601 156.023 3.90239 157.279 4.17129 158.2C4.4402 159.121 5.23424 159.399 5.23424 159.399" stroke="white" stroke-width="2.5" stroke-linecap="round"/>
<ellipse cx="138.888" cy="214.729" rx="3.91099" ry="5.64041" stroke="white" stroke-width="2.5"/>
<path d="M137.543 215.079C137.543 215.079 136.879 216.334 137.148 217.255C137.417 218.177 138.211 218.455 138.211 218.455" stroke="white" stroke-width="2.5" stroke-linecap="round"/>
<ellipse cx="529.591" cy="193.026" rx="4.30208" ry="6.2239" stroke="white" stroke-width="2.5"/>
<path d="M527.68 193.413C527.68 193.413 526.866 194.682 527.246 195.815C527.626 196.948 528.498 197.396 528.498 197.396" stroke="white" stroke-width="2.5" stroke-linecap="round"/>
<path d="M382.27 191.595C385.44 191.595 384.98 193.749 388.004 193.749C391.028 193.749 391.128 191.595 394.352 191.595C397.577 191.595 397.697 193.749 400.893 193.749C404.089 193.749 403.969 191.595 407.147 191.595C410.324 191.595 410.482 193.749 413.594 193.749C416.707 193.749 416.421 191.595 419.61 191.595" stroke="white" stroke-width="2.5"/>
<path d="M382.27 197.797C385.44 197.797 384.98 199.95 388.004 199.95C391.028 199.95 391.128 197.797 394.352 197.797C397.577 197.797 397.697 199.95 400.893 199.95C404.089 199.95 403.969 197.797 407.147 197.797C410.324 197.797 410.482 199.95 413.594 199.95C416.707 199.95 416.421 197.797 419.61 197.797" stroke="white" stroke-width="2.5"/>
<path d="M382.27 203.653C385.44 203.653 384.98 205.807 388.004 205.807C391.028 205.807 391.128 203.653 394.352 203.653C397.577 203.653 397.697 205.807 400.893 205.807C404.089 205.807 403.969 203.653 407.147 203.653C410.324 203.653 410.482 205.807 413.594 205.807C416.707 205.807 416.421 203.653 419.61 203.653" stroke="white" stroke-width="2.5"/>
<path fill-rule="evenodd" clip-rule="evenodd" d="M333.275 281.61C333.275 282.072 332.903 282.446 332.443 282.446C331.984 282.446 331.612 282.072 331.612 281.61C331.612 281.147 331.984 280.773 332.443 280.773C332.903 280.773 333.275 281.147 333.275 281.61ZM336.772 283.115C337.231 283.115 337.603 282.741 337.603 282.279C337.603 281.817 337.231 281.442 336.772 281.442C336.312 281.442 335.94 281.817 335.94 282.279C335.94 282.741 336.312 283.115 336.772 283.115ZM339.764 285.457C339.764 286.104 339.243 286.629 338.6 286.629C337.957 286.629 337.436 286.104 337.436 285.457C337.436 284.811 337.957 284.286 338.6 284.286C339.243 284.286 339.764 284.811 339.764 285.457ZM330.451 287.298C331.094 287.298 331.615 286.773 331.615 286.127C331.615 285.48 331.094 284.955 330.451 284.955C329.808 284.955 329.287 285.48 329.287 286.127C329.287 286.773 329.808 287.298 330.451 287.298ZM325.628 290.477C326.271 290.477 326.793 289.953 326.793 289.306C326.793 288.659 326.271 288.135 325.628 288.135C324.985 288.135 324.464 288.659 324.464 289.306C324.464 289.953 324.985 290.477 325.628 290.477ZM321.635 297.839C322.278 297.839 322.799 297.314 322.799 296.668C322.799 296.021 322.278 295.496 321.635 295.496C320.992 295.496 320.471 296.021 320.471 296.668C320.471 297.314 320.992 297.839 321.635 297.839ZM329.284 294.158C329.284 294.805 328.762 295.33 328.119 295.33C327.476 295.33 326.955 294.805 326.955 294.158C326.955 293.512 327.476 292.987 328.119 292.987C328.762 292.987 329.284 293.512 329.284 294.158ZM330.281 291.146C330.74 291.146 331.113 290.772 331.113 290.31C331.113 289.848 330.74 289.473 330.281 289.473C329.822 289.473 329.449 289.848 329.449 290.31C329.449 290.772 329.822 291.146 330.281 291.146ZM325.292 292.82C325.292 293.282 324.919 293.656 324.46 293.656C324.001 293.656 323.628 293.282 323.628 292.82C323.628 292.358 324.001 291.983 324.46 291.983C324.919 291.983 325.292 292.358 325.292 292.82ZM326.291 298.341C326.75 298.341 327.123 297.966 327.123 297.504C327.123 297.042 326.75 296.668 326.291 296.668C325.832 296.668 325.459 297.042 325.459 297.504C325.459 297.966 325.832 298.341 326.291 298.341ZM319.64 293.824C319.64 294.286 319.268 294.66 318.808 294.66C318.349 294.66 317.977 294.286 317.977 293.824C317.977 293.362 318.349 292.987 318.808 292.987C319.268 292.987 319.64 293.362 319.64 293.824ZM335.441 289.64C335.901 289.64 336.273 289.266 336.273 288.804C336.273 288.342 335.901 287.967 335.441 287.967C334.982 287.967 334.61 288.342 334.61 288.804C334.61 289.266 334.982 289.64 335.441 289.64Z" fill="white"/>
<path fill-rule="evenodd" clip-rule="evenodd" d="M318.244 300.479C315.762 298.494 313.912 295.308 314.997 292.759C316.082 290.21 320.735 288.518 323.803 286.064C326.87 283.61 328.742 278.654 331.62 277.7C334.499 276.747 337.97 278.035 340.148 280.13C342.325 282.226 344.266 284.687 342.853 287.598C341.441 290.51 336.836 291.291 333.999 294.04C331.162 296.79 329.163 301.397 326.682 302.349C324.201 303.3 320.727 302.464 318.244 300.479Z" stroke="white" stroke-width="2.5"/>
<path d="M314.613 300.602C314.613 300.602 315.7 304.433 318.52 306.363C321.339 308.294 323.346 308.995 326.426 308.031C329.506 307.066 331.022 302.372 333.557 300.207C337.486 296.853 343.779 295.035 343.334 291.07" stroke="white" stroke-width="2.5" stroke-linecap="round"/>
<path d="M428.988 251.824L422.166 232.726C421.813 231.738 422.314 230.648 423.294 230.272V230.272C424.3 229.885 425.428 230.397 425.8 231.409L427.252 235.355" stroke="white" stroke-width="2.5" stroke-linecap="round"/>
<path d="M427.312 235.513L424.534 227.864C424.175 226.876 424.674 225.782 425.656 225.405V225.405C426.66 225.02 427.785 225.53 428.157 226.538L430.227 232.15" stroke="white" stroke-width="2.5" stroke-linecap="round"/>
<path d="M429.639 230.363L427.959 225.737C427.601 224.75 428.099 223.658 429.079 223.282V223.282C430.083 222.897 431.209 223.409 431.578 224.419L434.212 231.629" stroke="white" stroke-width="2.5" stroke-linecap="round"/>
<path d="M433.066 228.325L431.947 225.244C431.589 224.259 432.086 223.168 433.065 222.792V222.792C434.07 222.407 435.196 222.921 435.562 223.933L446.795 254.944" stroke="white" stroke-width="2.5" stroke-linecap="round"/>
<path d="M437.898 248.724L430.732 238.288C430.077 237.334 430.228 236.042 431.085 235.265V235.265C431.951 234.48 433.267 234.464 434.151 235.228L437.686 238.281" stroke="white" stroke-width="2.5" stroke-linecap="round"/>
<path d="M441.702 232.776L446.551 227.118C447.242 226.313 448.452 226.215 449.263 226.898V226.898C450.073 227.581 450.182 228.789 449.507 229.606L443.809 236.503" stroke="white" stroke-width="2.5" stroke-linecap="round"/>
<path d="M448.672 230.717L449.059 230.266C449.738 229.473 450.931 229.378 451.727 230.053V230.053C452.521 230.727 452.625 231.914 451.959 232.714L446.767 238.959" stroke="white" stroke-width="2.5" stroke-linecap="round"/>
<path d="M449.281 235.939L449.666 235.49C450.346 234.696 451.54 234.601 452.338 235.277V235.277C453.131 235.95 453.236 237.136 452.573 237.938L446.435 245.362" stroke="white" stroke-width="2.5" stroke-linecap="round"/>
<path d="M440.248 228.505L443.187 225.159C443.849 224.404 444.993 224.317 445.763 224.961V224.961C446.542 225.614 446.649 226.773 446.002 227.557L443.897 230.105" stroke="white" stroke-width="2.5" stroke-linecap="round"/>
<path d="M122.328 308.661C122.328 308.661 126.22 308.725 126.691 305.312H144.236L143.178 315.79" stroke="white" stroke-width="2.5" stroke-linecap="round" stroke-linejoin="round"/>
<path d="M143.852 310.502C143.852 310.502 148.577 316.205 145.368 318.436C144.039 319.36 141.271 318.945 137.51 316.575C135.108 315.062 129.027 309.709 129.027 309.709" stroke="white" stroke-width="2.5" stroke-linecap="round" stroke-linejoin="round"/>
<path d="M123.949 308.626L125.82 325.661H142.115L142.907 318.921" stroke="white" stroke-width="2.5" stroke-linecap="round" stroke-linejoin="round"/>
<path d="M128.304 302.983C128.304 302.983 127.382 299.729 129.766 298.533C132.15 297.338 134.465 300.177 134.465 300.177" stroke="white" stroke-width="2.5" stroke-linecap="round" stroke-linejoin="round"/>
<path d="M132.625 298.449C132.625 298.449 133.582 295.858 135.82 295.801C138.058 295.743 138.962 298.009 138.962 298.009C138.962 298.009 140.946 297.208 142.129 297.923C143.311 298.638 143.254 300.23 143.254 300.23C143.254 300.23 145.694 300.519 146.006 302.449C146.318 304.38 144.321 305.351 144.321 305.351" stroke="white" stroke-width="2.5" stroke-linecap="round" stroke-linejoin="round"/>
<path d="M124.274 312.268C124.274 312.268 120.903 313.461 119.608 311.441C118.313 309.421 120.23 307.436 120.23 307.436C120.23 307.436 119.083 305.448 119.878 303.775C120.674 302.103 122.994 301.337 124.829 302.428" stroke="white" stroke-width="2.5" stroke-linecap="round" stroke-linejoin="round"/>
<path d="M122.72 301.858C122.72 301.858 122.452 299.656 123.559 298.566C124.667 297.476 126.641 297.863 126.641 297.863" stroke="white" stroke-width="2.5" stroke-linecap="round" stroke-linejoin="round"/>
<path fill-rule="evenodd" clip-rule="evenodd" d="M202.611 237.139C202.959 237.341 203.404 237.223 203.604 236.876C203.804 236.53 203.684 236.086 203.335 235.884C202.987 235.683 202.542 235.801 202.342 236.148C202.142 236.494 202.262 236.938 202.611 237.139ZM199.656 236.435C200.004 236.636 200.449 236.519 200.649 236.172C200.849 235.825 200.729 235.381 200.38 235.18C200.032 234.979 199.587 235.097 199.387 235.443C199.187 235.79 199.307 236.234 199.656 236.435ZM198.495 238.443C198.843 238.645 199.288 238.527 199.488 238.18C199.688 237.834 199.568 237.389 199.219 237.188C198.871 236.987 198.426 237.105 198.226 237.452C198.026 237.798 198.146 238.242 198.495 238.443ZM198.253 240.314C198.053 240.66 197.608 240.778 197.26 240.577C196.911 240.376 196.791 239.932 196.991 239.585C197.191 239.239 197.636 239.121 197.984 239.322C198.333 239.523 198.453 239.967 198.253 240.314ZM202.013 239.637C201.813 239.984 201.368 240.102 201.019 239.901C200.671 239.699 200.551 239.255 200.751 238.909C200.951 238.562 201.396 238.444 201.744 238.645C202.093 238.847 202.213 239.291 202.013 239.637ZM199.348 242.787C199.697 242.988 200.142 242.87 200.342 242.524C200.542 242.177 200.422 241.733 200.073 241.532C199.725 241.331 199.28 241.449 199.08 241.795C198.88 242.142 199 242.586 199.348 242.787Z" fill="white"/>
<path d="M184.138 235.341L187.672 237.38" stroke="white" stroke-width="2.5" stroke-linecap="round"/>
<path d="M182.4 238.353L185.933 240.393" stroke="white" stroke-width="2.5" stroke-linecap="round"/>
<path fill-rule="evenodd" clip-rule="evenodd" d="M182.234 238.263L183.913 235.354L181.213 233.795L180.76 231.87L184.5 230.345C186.205 229.65 188.136 229.782 189.73 230.703L195.973 234.307C196.508 234.616 196.691 235.3 196.383 235.834L195.632 237.133C195.411 237.517 194.92 237.649 194.536 237.427V237.427C191.85 235.876 188.415 236.797 186.864 239.483L185.742 241.425C184.673 243.277 184.408 245.486 185.008 247.539V247.539C185.608 249.591 185.343 251.8 184.274 253.652L182.482 256.755L171.588 250.466C171.588 250.466 173.947 245.659 176.468 242.769C178.989 239.879 182.234 238.263 182.234 238.263Z" stroke="white" stroke-width="2.5" stroke-linecap="round" stroke-linejoin="round"/>
<path d="M193.968 233.818C191.777 237.262 191.077 239.888 191.868 241.697" stroke="white" stroke-width="2.5" stroke-linecap="round"/>
<path d="M568 286.037L579.164 297.359L585.672 290.918L592.567 292.683L604.675 304.897L607.782 301.752L595.779 289.655L593.991 282.483L600.347 276.117L589.114 264.76" stroke="white" stroke-width="2.5" stroke-linecap="round" stroke-linejoin="round"/>
<path d="M574.98 292.488L595.756 271.736" stroke="white" stroke-width="2.5" stroke-linecap="round" stroke-linejoin="round"/>
<path d="M585.878 290.99L584.223 289.351L592.446 281.087L593.982 282.707" stroke="white" stroke-width="2.5" stroke-linecap="round" stroke-linejoin="round"/>
<path d="M592.699 292.885L595.738 289.893" stroke="white" stroke-width="2.5" stroke-linecap="round" stroke-linejoin="round"/>
<path d="M601.422 301.443L604.461 298.451" stroke="white" stroke-width="2.5" stroke-linecap="round" stroke-linejoin="round"/>
<path d="M597.266 297.268L600.305 294.276" stroke="white" stroke-width="2.5" stroke-linecap="round" stroke-linejoin="round"/>
<path d="M576.359 300.418L580.784 304.897" stroke="white" stroke-width="2.5" stroke-linecap="round" stroke-linejoin="round"/>
<path d="M582.387 300.418L586.811 304.897" stroke="white" stroke-width="2.5" stroke-linecap="round" stroke-linejoin="round"/>
<path d="M600.469 282.26L604.893 286.739" stroke="white" stroke-width="2.5" stroke-linecap="round" stroke-linejoin="round"/>
<path d="M600.469 270.154L604.893 274.633" stroke="white" stroke-width="2.5" stroke-linecap="round" stroke-linejoin="round"/>
<path d="M633.752 242.543L623.955 238.977C623.206 238.705 622.82 237.876 623.092 237.127V237.127C623.365 236.378 624.193 235.992 624.942 236.264L633.337 239.32C635.868 240.241 637.172 243.039 636.251 245.569V245.569C636.058 246.101 635.47 246.375 634.939 246.181L621.568 241.315" stroke="white" stroke-width="2.5" stroke-linecap="round"/>
<path d="M623.011 237.334L625.43 230.689C626.323 228.235 629.036 226.97 631.489 227.863L633.606 228.634C637.899 230.197 640.113 234.944 638.55 239.237L636.879 243.831" stroke="white" stroke-width="2.5"/>
<path fill-rule="evenodd" clip-rule="evenodd" d="M298.797 239.659C298.797 239.659 290.895 242.319 289.528 249.083C289.528 249.083 287.235 241.14 280.068 239.659C280.068 239.659 287.703 237.256 289.528 230.327C289.528 230.327 290.727 234.173 293.111 236.488C295.043 238.364 298.797 239.659 298.797 239.659Z" stroke="white" stroke-width="2.5" stroke-linecap="round" stroke-linejoin="round"/>
<path fill-rule="evenodd" clip-rule="evenodd" d="M551.492 233.807C551.492 233.807 544.561 236.136 543.363 242.06C543.363 242.06 541.352 235.104 535.066 233.807C535.066 233.807 541.762 231.702 543.363 225.634C543.363 225.634 544.415 229.002 546.505 231.029C548.2 232.672 551.492 233.807 551.492 233.807Z" stroke="white" stroke-width="2.5" stroke-linecap="round" stroke-linejoin="round"/>
<path fill-rule="evenodd" clip-rule="evenodd" d="M205.367 303.045C205.367 303.045 200.747 304.598 199.948 308.547C199.948 308.547 198.607 303.91 194.416 303.045C194.416 303.045 198.88 301.642 199.948 297.596C199.948 297.596 200.649 299.842 202.043 301.193C203.172 302.289 205.367 303.045 205.367 303.045Z" stroke="white" stroke-width="2.5" stroke-linecap="round" stroke-linejoin="round"/>
<path fill-rule="evenodd" clip-rule="evenodd" d="M443.547 308.915C443.547 308.915 439.586 310.246 438.902 313.631C438.902 313.631 437.752 309.656 434.161 308.915C434.161 308.915 437.987 307.713 438.902 304.245C438.902 304.245 439.503 306.17 440.697 307.328C441.665 308.267 443.547 308.915 443.547 308.915Z" stroke="white" stroke-width="2.5" stroke-linecap="round" stroke-linejoin="round"/>
<path fill-rule="evenodd" clip-rule="evenodd" d="M634.406 274.117C634.406 274.117 632.096 274.894 631.697 276.868C631.697 276.868 631.026 274.55 628.931 274.117C628.931 274.117 631.163 273.416 631.697 271.393C631.697 271.393 632.047 272.516 632.744 273.191C633.309 273.739 634.406 274.117 634.406 274.117Z" stroke="white" stroke-width="2.5" stroke-linecap="round" stroke-linejoin="round"/>
<path d="M351.645 236.922H353.895" stroke="white" stroke-width="3" stroke-linecap="round" stroke-linejoin="round"/>
<path d="M352.77 235.802V238.043" stroke="white" stroke-width="3" stroke-linecap="round" stroke-linejoin="round"/>
<path d="M496.348 236.922H498.598" stroke="white" stroke-width="3" stroke-linecap="round" stroke-linejoin="round"/>
<path d="M497.477 235.802V238.043" stroke="white" stroke-width="3" stroke-linecap="round" stroke-linejoin="round"/>
<path d="M644.176 256.443H647.927" stroke="white" stroke-width="3" stroke-linecap="round" stroke-linejoin="round"/>
<path d="M646.051 254.575V258.31" stroke="white" stroke-width="3" stroke-linecap="round" stroke-linejoin="round"/>
<path d="M590.211 233.012H592.461" stroke="white" stroke-width="3" stroke-linecap="round" stroke-linejoin="round"/>
<path d="M591.34 231.891V234.132" stroke="white" stroke-width="3" stroke-linecap="round" stroke-linejoin="round"/>
<path d="M549.926 310.788H554.427" stroke="white" stroke-width="3" stroke-linecap="round" stroke-linejoin="round"/>
<path d="M552.176 308.547V313.029" stroke="white" stroke-width="3" stroke-linecap="round" stroke-linejoin="round"/>
<path d="M402.48 299.499H404.731" stroke="white" stroke-width="3" stroke-linecap="round" stroke-linejoin="round"/>
<path d="M403.609 298.378V300.619" stroke="white" stroke-width="3" stroke-linecap="round" stroke-linejoin="round"/>
<path d="M265.203 307.304H268.204" stroke="white" stroke-width="3" stroke-linecap="round" stroke-linejoin="round"/>
<path d="M266.703 305.81V308.798" stroke="white" stroke-width="3" stroke-linecap="round" stroke-linejoin="round"/>
<path d="M238.223 248.656H240.473" stroke="white" stroke-width="3" stroke-linecap="round" stroke-linejoin="round"/>
<path d="M239.352 247.536V249.776" stroke="white" stroke-width="3" stroke-linecap="round" stroke-linejoin="round"/>
<path d="M123.633 236.976H128.326" stroke="white" stroke-width="3" stroke-linecap="round" stroke-linejoin="round"/>
<path d="M125.98 234.63V239.323" stroke="white" stroke-width="3" stroke-linecap="round" stroke-linejoin="round"/>
<path d="M148.27 272.122H150.52" stroke="white" stroke-width="3" stroke-linecap="round" stroke-linejoin="round"/>
<path d="M149.398 271.002V273.243" stroke="white" stroke-width="3" stroke-linecap="round" stroke-linejoin="round"/>
<ellipse cx="380.585" cy="236.041" rx="5.47538" ry="7.97438" stroke="white" stroke-width="2.5"/>
<path d="M378.156 236.537C378.156 236.537 377.12 238.162 377.603 239.614C378.086 241.066 379.197 241.64 379.197 241.64" stroke="white" stroke-width="2.5" stroke-linecap="round"/>
<ellipse cx="116.977" cy="262.623" rx="3.91099" ry="5.64041" stroke="white" stroke-width="2.5"/>
<path d="M115.632 262.974C115.632 262.974 114.969 264.229 115.238 265.151C115.507 266.072 116.301 266.35 116.301 266.35" stroke="white" stroke-width="2.5" stroke-linecap="round"/>
<ellipse cx="249.954" cy="321.68" rx="3.91099" ry="5.64041" stroke="white" stroke-width="2.5"/>
<path d="M248.609 322.03C248.609 322.03 247.945 323.286 248.214 324.207C248.483 325.128 249.277 325.406 249.277 325.406" stroke="white" stroke-width="2.5" stroke-linecap="round"/>
<ellipse cx="640.665" cy="299.976" rx="4.30208" ry="6.2239" stroke="white" stroke-width="2.5"/>
<path d="M638.754 300.363C638.754 300.363 637.94 301.632 638.32 302.765C638.7 303.898 639.573 304.346 639.573 304.346" stroke="white" stroke-width="2.5" stroke-linecap="round"/>
<path d="M493.336 298.546C496.506 298.546 496.046 300.7 499.07 300.7C502.094 300.7 502.194 298.546 505.419 298.546C508.643 298.546 508.764 300.7 511.959 300.7C515.155 300.7 515.036 298.546 518.213 298.546C521.39 298.546 521.548 300.7 524.661 300.7C527.773 300.7 527.487 298.546 530.677 298.546" stroke="white" stroke-width="2.5"/>
<path d="M493.336 304.748C496.506 304.748 496.046 306.901 499.07 306.901C502.094 306.901 502.194 304.748 505.419 304.748C508.643 304.748 508.764 306.901 511.959 306.901C515.155 306.901 515.036 304.748 518.213 304.748C521.39 304.748 521.548 306.901 524.661 306.901C527.773 306.901 527.487 304.748 530.677 304.748" stroke="white" stroke-width="2.5"/>
<path d="M493.336 310.604C496.506 310.604 496.046 312.758 499.07 312.758C502.094 312.758 502.194 310.604 505.419 310.604C508.643 310.604 508.764 312.758 511.959 312.758C515.155 312.758 515.036 310.604 518.213 310.604C521.39 310.604 521.548 312.758 524.661 312.758C527.773 312.758 527.487 310.604 530.677 310.604" stroke="white" stroke-width="2.5"/>
<path fill-rule="evenodd" clip-rule="evenodd" d="M333.275 392.29C333.275 392.752 332.903 393.127 332.443 393.127C331.984 393.127 331.612 392.752 331.612 392.29C331.612 391.828 331.984 391.453 332.443 391.453C332.903 391.453 333.275 391.828 333.275 392.29ZM336.772 393.796C337.231 393.796 337.603 393.421 337.603 392.959C337.603 392.497 337.231 392.123 336.772 392.123C336.312 392.123 335.94 392.497 335.94 392.959C335.94 393.421 336.312 393.796 336.772 393.796ZM339.764 396.138C339.764 396.785 339.243 397.309 338.6 397.309C337.957 397.309 337.436 396.785 337.436 396.138C337.436 395.491 337.957 394.967 338.6 394.967C339.243 394.967 339.764 395.491 339.764 396.138ZM330.451 397.978C331.094 397.978 331.615 397.454 331.615 396.807C331.615 396.16 331.094 395.636 330.451 395.636C329.808 395.636 329.287 396.16 329.287 396.807C329.287 397.454 329.808 397.978 330.451 397.978ZM325.628 401.158C326.271 401.158 326.793 400.633 326.793 399.986C326.793 399.34 326.271 398.815 325.628 398.815C324.985 398.815 324.464 399.34 324.464 399.986C324.464 400.633 324.985 401.158 325.628 401.158ZM321.635 408.519C322.278 408.519 322.799 407.995 322.799 407.348C322.799 406.701 322.278 406.177 321.635 406.177C320.992 406.177 320.471 406.701 320.471 407.348C320.471 407.995 320.992 408.519 321.635 408.519ZM329.284 404.839C329.284 405.486 328.762 406.01 328.119 406.01C327.476 406.01 326.955 405.486 326.955 404.839C326.955 404.192 327.476 403.668 328.119 403.668C328.762 403.668 329.284 404.192 329.284 404.839ZM330.281 401.827C330.74 401.827 331.113 401.452 331.113 400.99C331.113 400.528 330.74 400.154 330.281 400.154C329.822 400.154 329.449 400.528 329.449 400.99C329.449 401.452 329.822 401.827 330.281 401.827ZM325.292 403.5C325.292 403.962 324.919 404.337 324.46 404.337C324.001 404.337 323.628 403.962 323.628 403.5C323.628 403.038 324.001 402.664 324.46 402.664C324.919 402.664 325.292 403.038 325.292 403.5ZM326.291 409.022C326.75 409.022 327.123 408.647 327.123 408.185C327.123 407.723 326.75 407.348 326.291 407.348C325.832 407.348 325.459 407.723 325.459 408.185C325.459 408.647 325.832 409.022 326.291 409.022ZM319.64 404.504C319.64 404.966 319.268 405.341 318.808 405.341C318.349 405.341 317.977 404.966 317.977 404.504C317.977 404.042 318.349 403.668 318.808 403.668C319.268 403.668 319.64 404.042 319.64 404.504ZM335.441 400.321C335.901 400.321 336.273 399.946 336.273 399.484C336.273 399.022 335.901 398.648 335.441 398.648C334.982 398.648 334.61 399.022 334.61 399.484C334.61 399.946 334.982 400.321 335.441 400.321Z" fill="white"/>
<path fill-rule="evenodd" clip-rule="evenodd" d="M318.244 411.159C315.762 409.174 313.912 405.988 314.997 403.439C316.082 400.89 320.735 399.198 323.803 396.744C326.87 394.29 328.742 389.335 331.62 388.381C334.499 387.427 337.97 388.715 340.148 390.811C342.325 392.907 344.266 395.367 342.853 398.279C341.441 401.19 336.836 401.971 333.999 404.721C331.162 407.47 329.163 412.078 326.682 413.029C324.201 413.981 320.727 413.145 318.244 411.159Z" stroke="white" stroke-width="2.5"/>
<path d="M314.613 411.282C314.613 411.282 315.7 415.113 318.52 417.044C321.339 418.974 323.346 419.676 326.426 418.711C329.506 417.746 331.022 413.053 333.557 410.888C337.486 407.533 343.779 405.716 343.334 401.75" stroke="white" stroke-width="2.5" stroke-linecap="round"/>
<path d="M428.988 362.505L422.166 343.407C421.813 342.418 422.314 341.328 423.294 340.952V340.952C424.3 340.566 425.428 341.078 425.8 342.089L427.252 346.035" stroke="white" stroke-width="2.5" stroke-linecap="round"/>
<path d="M427.312 346.193L424.534 338.545C424.175 337.556 424.674 336.462 425.656 336.086V336.086C426.66 335.701 427.785 336.21 428.157 337.219L430.227 342.831" stroke="white" stroke-width="2.5" stroke-linecap="round"/>
<path d="M429.639 341.044L427.959 336.418C427.601 335.431 428.099 334.339 429.079 333.963V333.963C430.083 333.577 431.209 334.089 431.578 335.1L434.212 342.31" stroke="white" stroke-width="2.5" stroke-linecap="round"/>
<path d="M433.066 339.006L431.947 335.924C431.589 334.939 432.086 333.848 433.065 333.473V333.473C434.07 333.087 435.196 333.601 435.562 334.613L446.795 365.625" stroke="white" stroke-width="2.5" stroke-linecap="round"/>
<path d="M437.898 359.404L430.732 348.968C430.077 348.014 430.228 346.723 431.085 345.945V345.945C431.951 345.16 433.267 345.144 434.151 345.908L437.686 348.962" stroke="white" stroke-width="2.5" stroke-linecap="round"/>
<path d="M441.702 343.456L446.551 337.799C447.242 336.994 448.452 336.896 449.263 337.579V337.579C450.073 338.261 450.182 339.469 449.507 340.286L443.809 347.184" stroke="white" stroke-width="2.5" stroke-linecap="round"/>
<path d="M448.672 341.397L449.059 340.946C449.738 340.153 450.931 340.059 451.727 340.734V340.734C452.521 341.407 452.625 342.594 451.959 343.395L446.767 349.639" stroke="white" stroke-width="2.5" stroke-linecap="round"/>
<path d="M449.281 346.62L449.666 346.171C450.346 345.377 451.54 345.282 452.338 345.958V345.958C453.131 346.631 453.236 347.817 452.573 348.618L446.435 356.043" stroke="white" stroke-width="2.5" stroke-linecap="round"/>
<path d="M440.248 339.185L443.187 335.839C443.849 335.085 444.993 334.997 445.763 335.642V335.642C446.542 336.294 446.649 337.453 446.002 338.237L443.897 340.785" stroke="white" stroke-width="2.5" stroke-linecap="round"/>
<path d="M122.328 419.342C122.328 419.342 126.22 419.405 126.691 415.992H144.236L143.178 426.47" stroke="white" stroke-width="2.5" stroke-linecap="round" stroke-linejoin="round"/>
<path d="M143.852 421.182C143.852 421.182 148.577 426.885 145.368 429.116C144.039 430.04 141.271 429.625 137.51 427.256C135.108 425.743 129.027 420.389 129.027 420.389" stroke="white" stroke-width="2.5" stroke-linecap="round" stroke-linejoin="round"/>
<path d="M123.949 419.306L125.82 436.341H142.115L142.907 429.601" stroke="white" stroke-width="2.5" stroke-linecap="round" stroke-linejoin="round"/>
<path d="M128.304 413.663C128.304 413.663 127.382 410.409 129.766 409.214C132.15 408.019 134.465 410.857 134.465 410.857" stroke="white" stroke-width="2.5" stroke-linecap="round" stroke-linejoin="round"/>
<path d="M132.625 409.13C132.625 409.13 133.582 406.538 135.82 406.481C138.058 406.424 138.962 408.689 138.962 408.689C138.962 408.689 140.946 407.889 142.129 408.603C143.311 409.318 143.254 410.911 143.254 410.911C143.254 410.911 145.694 411.199 146.006 413.13C146.318 415.06 144.321 416.031 144.321 416.031" stroke="white" stroke-width="2.5" stroke-linecap="round" stroke-linejoin="round"/>
<path d="M124.274 422.949C124.274 422.949 120.903 424.141 119.608 422.121C118.313 420.101 120.23 418.117 120.23 418.117C120.23 418.117 119.083 416.128 119.878 414.455C120.674 412.783 122.994 412.017 124.829 413.108" stroke="white" stroke-width="2.5" stroke-linecap="round" stroke-linejoin="round"/>
<path d="M122.72 412.538C122.72 412.538 122.452 410.336 123.559 409.247C124.667 408.157 126.641 408.543 126.641 408.543" stroke="white" stroke-width="2.5" stroke-linecap="round" stroke-linejoin="round"/>
<path fill-rule="evenodd" clip-rule="evenodd" d="M202.611 347.82C202.959 348.021 203.404 347.903 203.604 347.557C203.804 347.21 203.684 346.766 203.335 346.565C202.987 346.364 202.542 346.482 202.342 346.828C202.142 347.175 202.262 347.619 202.611 347.82ZM199.656 347.116C200.004 347.317 200.449 347.199 200.649 346.853C200.849 346.506 200.729 346.062 200.38 345.861C200.032 345.66 199.587 345.778 199.387 346.124C199.187 346.471 199.307 346.915 199.656 347.116ZM198.495 349.124C198.843 349.325 199.288 349.207 199.488 348.861C199.688 348.514 199.568 348.07 199.219 347.869C198.871 347.668 198.426 347.786 198.226 348.132C198.026 348.479 198.146 348.923 198.495 349.124ZM198.253 350.994C198.053 351.341 197.608 351.459 197.26 351.258C196.911 351.057 196.791 350.613 196.991 350.266C197.191 349.919 197.636 349.801 197.984 350.003C198.333 350.204 198.453 350.648 198.253 350.994ZM202.013 350.318C201.813 350.664 201.368 350.782 201.019 350.581C200.671 350.38 200.551 349.936 200.751 349.589C200.951 349.243 201.396 349.125 201.744 349.326C202.093 349.527 202.213 349.971 202.013 350.318ZM199.348 353.468C199.697 353.669 200.142 353.551 200.342 353.205C200.542 352.858 200.422 352.414 200.073 352.213C199.725 352.012 199.28 352.129 199.08 352.476C198.88 352.823 199 353.267 199.348 353.468Z" fill="white"/>
<path d="M184.138 346.021L187.672 348.061" stroke="white" stroke-width="2.5" stroke-linecap="round"/>
<path d="M182.4 349.034L185.933 351.073" stroke="white" stroke-width="2.5" stroke-linecap="round"/>
<path fill-rule="evenodd" clip-rule="evenodd" d="M182.234 348.943L183.913 346.035L181.213 344.476L180.76 342.55L184.5 341.026C186.205 340.331 188.136 340.463 189.73 341.383L195.973 344.988C196.508 345.296 196.691 345.98 196.383 346.515L195.632 347.814C195.411 348.198 194.92 348.329 194.536 348.108V348.108C191.85 346.557 188.415 347.477 186.864 350.163L185.742 352.106C184.673 353.958 184.408 356.167 185.008 358.219V358.219C185.608 360.272 185.343 362.48 184.274 364.332L182.482 367.436L171.588 361.146C171.588 361.146 173.947 356.339 176.468 353.45C178.989 350.56 182.234 348.943 182.234 348.943Z" stroke="white" stroke-width="2.5" stroke-linecap="round" stroke-linejoin="round"/>
<path d="M193.968 344.498C191.777 347.942 191.077 350.569 191.868 352.378" stroke="white" stroke-width="2.5" stroke-linecap="round"/>
<path d="M568 396.717L579.164 408.04L585.672 401.598L592.567 403.363L604.675 415.577L607.782 412.432L595.779 400.335L593.991 393.164L600.347 386.798L589.114 375.44" stroke="white" stroke-width="2.5" stroke-linecap="round" stroke-linejoin="round"/>
<path d="M574.98 403.169L595.756 382.417" stroke="white" stroke-width="2.5" stroke-linecap="round" stroke-linejoin="round"/>
<path d="M585.878 401.671L584.223 400.031L592.446 391.767L593.982 393.387" stroke="white" stroke-width="2.5" stroke-linecap="round" stroke-linejoin="round"/>
<path d="M592.699 403.565L595.738 400.574" stroke="white" stroke-width="2.5" stroke-linecap="round" stroke-linejoin="round"/>
<path d="M601.422 412.123L604.461 409.132" stroke="white" stroke-width="2.5" stroke-linecap="round" stroke-linejoin="round"/>
<path d="M597.266 407.948L600.305 404.957" stroke="white" stroke-width="2.5" stroke-linecap="round" stroke-linejoin="round"/>
<path d="M576.359 411.099L580.784 415.578" stroke="white" stroke-width="2.5" stroke-linecap="round" stroke-linejoin="round"/>
<path d="M582.387 411.099L586.811 415.578" stroke="white" stroke-width="2.5" stroke-linecap="round" stroke-linejoin="round"/>
<path d="M600.469 392.94L604.893 397.419" stroke="white" stroke-width="2.5" stroke-linecap="round" stroke-linejoin="round"/>
<path d="M600.469 380.834L604.893 385.313" stroke="white" stroke-width="2.5" stroke-linecap="round" stroke-linejoin="round"/>
<path d="M633.752 353.224L623.955 349.658C623.206 349.385 622.82 348.557 623.092 347.808V347.808C623.365 347.059 624.193 346.672 624.942 346.945L633.337 350C635.868 350.921 637.172 353.719 636.251 356.25V356.25C636.058 356.781 635.47 357.055 634.939 356.862L621.568 351.995" stroke="white" stroke-width="2.5" stroke-linecap="round"/>
<path d="M623.011 348.015L625.43 341.369C626.323 338.916 629.036 337.651 631.489 338.544L633.606 339.315C637.899 340.877 640.113 345.624 638.55 349.918L636.879 354.511" stroke="white" stroke-width="2.5"/>
<path fill-rule="evenodd" clip-rule="evenodd" d="M298.797 350.339C298.797 350.339 290.895 352.999 289.528 359.764C289.528 359.764 287.235 351.821 280.068 350.339C280.068 350.339 287.703 347.937 289.528 341.008C289.528 341.008 290.727 344.854 293.111 347.168C295.043 349.044 298.797 350.339 298.797 350.339Z" stroke="white" stroke-width="2.5" stroke-linecap="round" stroke-linejoin="round"/>
<path fill-rule="evenodd" clip-rule="evenodd" d="M551.492 344.487C551.492 344.487 544.561 346.816 543.363 352.741C543.363 352.741 541.352 345.784 535.066 344.487C535.066 344.487 541.762 342.383 543.363 336.314C543.363 336.314 544.415 339.683 546.505 341.71C548.2 343.353 551.492 344.487 551.492 344.487Z" stroke="white" stroke-width="2.5" stroke-linecap="round" stroke-linejoin="round"/>
<path fill-rule="evenodd" clip-rule="evenodd" d="M205.367 413.725C205.367 413.725 200.747 415.278 199.948 419.227C199.948 419.227 198.607 414.59 194.416 413.725C194.416 413.725 198.88 412.322 199.948 408.277C199.948 408.277 200.649 410.522 202.043 411.874C203.172 412.969 205.367 413.725 205.367 413.725Z" stroke="white" stroke-width="2.5" stroke-linecap="round" stroke-linejoin="round"/>
<path fill-rule="evenodd" clip-rule="evenodd" d="M443.547 419.596C443.547 419.596 439.586 420.927 438.902 424.312C438.902 424.312 437.752 420.337 434.161 419.596C434.161 419.596 437.987 418.393 438.902 414.926C438.902 414.926 439.503 416.85 440.697 418.009C441.665 418.948 443.547 419.596 443.547 419.596Z" stroke="white" stroke-width="2.5" stroke-linecap="round" stroke-linejoin="round"/>
<path fill-rule="evenodd" clip-rule="evenodd" d="M634.406 384.797C634.406 384.797 632.096 385.574 631.697 387.549C631.697 387.549 631.026 385.23 628.931 384.797C628.931 384.797 631.163 384.096 631.697 382.073C631.697 382.073 632.047 383.196 632.744 383.872C633.309 384.419 634.406 384.797 634.406 384.797Z" stroke="white" stroke-width="2.5" stroke-linecap="round" stroke-linejoin="round"/>
<path d="M351.645 347.603H353.895" stroke="white" stroke-width="3" stroke-linecap="round" stroke-linejoin="round"/>
<path d="M352.77 346.483V348.724" stroke="white" stroke-width="3" stroke-linecap="round" stroke-linejoin="round"/>
<path d="M496.348 347.603H498.598" stroke="white" stroke-width="3" stroke-linecap="round" stroke-linejoin="round"/>
<path d="M497.477 346.483V348.724" stroke="white" stroke-width="3" stroke-linecap="round" stroke-linejoin="round"/>
<path d="M644.176 367.123H647.927" stroke="white" stroke-width="3" stroke-linecap="round" stroke-linejoin="round"/>
<path d="M646.051 365.256V368.991" stroke="white" stroke-width="3" stroke-linecap="round" stroke-linejoin="round"/>
<path d="M590.211 343.693H592.461" stroke="white" stroke-width="3" stroke-linecap="round" stroke-linejoin="round"/>
<path d="M591.34 342.573V344.814" stroke="white" stroke-width="3" stroke-linecap="round" stroke-linejoin="round"/>
<path d="M549.926 421.469H554.427" stroke="white" stroke-width="3" stroke-linecap="round" stroke-linejoin="round"/>
<path d="M552.176 419.228V423.71" stroke="white" stroke-width="3" stroke-linecap="round" stroke-linejoin="round"/>
<path d="M402.48 410.18H404.731" stroke="white" stroke-width="3" stroke-linecap="round" stroke-linejoin="round"/>
<path d="M403.609 409.059V411.3" stroke="white" stroke-width="3" stroke-linecap="round" stroke-linejoin="round"/>
<path d="M265.203 417.984H268.204" stroke="white" stroke-width="3" stroke-linecap="round" stroke-linejoin="round"/>
<path d="M266.703 416.49V419.478" stroke="white" stroke-width="3" stroke-linecap="round" stroke-linejoin="round"/>
<path d="M238.223 359.337H240.473" stroke="white" stroke-width="3" stroke-linecap="round" stroke-linejoin="round"/>
<path d="M239.352 358.216V360.457" stroke="white" stroke-width="3" stroke-linecap="round" stroke-linejoin="round"/>
<path d="M123.633 347.657H128.326" stroke="white" stroke-width="3" stroke-linecap="round" stroke-linejoin="round"/>
<path d="M125.98 345.31V350.003" stroke="white" stroke-width="3" stroke-linecap="round" stroke-linejoin="round"/>
<path d="M148.27 382.802H150.52" stroke="white" stroke-width="3" stroke-linecap="round" stroke-linejoin="round"/>
<path d="M149.398 381.682V383.923" stroke="white" stroke-width="3" stroke-linecap="round" stroke-linejoin="round"/>
<ellipse cx="380.585" cy="346.722" rx="5.47538" ry="7.97438" stroke="white" stroke-width="2.5"/>
<path d="M378.156 347.217C378.156 347.217 377.12 348.843 377.603 350.295C378.086 351.747 379.197 352.321 379.197 352.321" stroke="white" stroke-width="2.5" stroke-linecap="round"/>
<ellipse cx="116.977" cy="373.304" rx="3.91099" ry="5.64041" stroke="white" stroke-width="2.5"/>
<path d="M115.632 373.655C115.632 373.655 114.969 374.91 115.238 375.832C115.507 376.753 116.301 377.031 116.301 377.031" stroke="white" stroke-width="2.5" stroke-linecap="round"/>
<ellipse cx="249.954" cy="432.359" rx="3.91099" ry="5.64041" stroke="white" stroke-width="2.5"/>
<path d="M248.609 432.71C248.609 432.71 247.945 433.965 248.214 434.887C248.483 435.808 249.277 436.086 249.277 436.086" stroke="white" stroke-width="2.5" stroke-linecap="round"/>
<ellipse cx="640.665" cy="410.657" rx="4.30208" ry="6.2239" stroke="white" stroke-width="2.5"/>
<path d="M638.754 411.044C638.754 411.044 637.94 412.312 638.32 413.446C638.7 414.579 639.573 415.027 639.573 415.027" stroke="white" stroke-width="2.5" stroke-linecap="round"/>
<path d="M493.336 409.226C496.506 409.226 496.046 411.38 499.07 411.38C502.094 411.38 502.194 409.226 505.419 409.226C508.643 409.226 508.764 411.38 511.959 411.38C515.155 411.38 515.036 409.226 518.213 409.226C521.39 409.226 521.548 411.38 524.661 411.38C527.773 411.38 527.487 409.226 530.677 409.226" stroke="white" stroke-width="2.5"/>
<path d="M493.336 415.428C496.506 415.428 496.046 417.582 499.07 417.582C502.094 417.582 502.194 415.428 505.419 415.428C508.643 415.428 508.764 417.582 511.959 417.582C515.155 417.582 515.036 415.428 518.213 415.428C521.39 415.428 521.548 417.582 524.661 417.582C527.773 417.582 527.487 415.428 530.677 415.428" stroke="white" stroke-width="2.5"/>
<path d="M493.336 421.285C496.506 421.285 496.046 423.439 499.07 423.439C502.094 423.439 502.194 421.285 505.419 421.285C508.643 421.285 508.764 423.439 511.959 423.439C515.155 423.439 515.036 421.285 518.213 421.285C521.39 421.285 521.548 423.439 524.661 423.439C527.773 423.439 527.487 421.285 530.677 421.285" stroke="white" stroke-width="2.5"/>
</g>
</svg>
